<svg xmlns="http://www.w3.org/2000/svg" viewBox="0 0 380.32 338.75"><defs><style>.cls-1{fill:#fff;}</style></defs><title>clear-thunderRain</title><g id="圖層_2" data-name="圖層 2"><g id="圖層_1-2" data-name="圖層 1"><path class="cls-1" d="M329.66,288.63V274.87c11.48,0,22.11-6,29.17-16.34a45.5,45.5,0,0,0,7.73-25.74c0-13.38-5.42-25.67-14.85-33.71a35.49,35.49,0,0,0-3.95-2.94l-4-2.57,1-4.62A108.22,108.22,0,0,0,238.9,58.59a107.22,107.22,0,0,0-64.67,21.46,109,109,0,0,0-38.59,54.46l-2.26,7.25-7-3A70.83,70.83,0,1,0,98.77,274.87v13.76a84.59,84.59,0,1,1,26.1-165.08A123.08,123.08,0,0,1,166,69a121.9,121.9,0,0,1,194.81,97.7,123.12,123.12,0,0,1-1.73,20.58c.53.43,1.06.86,1.58,1.3,12.49,10.65,19.67,26.76,19.67,44.18a59.25,59.25,0,0,1-10.11,33.49C360.55,280.48,345.77,288.63,329.66,288.63Z"/><rect class="cls-1" x="132.77" y="234.51" width="13.76" height="60.3" transform="translate(-126.13 127.15) rotate(-34.82)"/><rect class="cls-1" x="191.09" y="279.93" width="13.76" height="60.3" transform="translate(-141.62 168.59) rotate(-34.82)"/><rect class="cls-1" x="204.25" y="234.51" width="13.76" height="60.3" transform="translate(-113.33 167.97) rotate(-34.82)"/><polygon class="cls-1" points="280.55 308.24 269.22 300.42 289.88 270.48 253.86 265.66 277.12 221.77 289.28 228.21 275.27 254.64 313.96 259.82 280.55 308.24"/><path class="cls-1" d="M54.84,148.21l-3.56-6.13a64.66,64.66,0,1,1,114-60.92l2.2,4.48-3.59,3.46a108.51,108.51,0,0,0-28.31,45.79l-2.24,7.2-6.95-2.94a71.25,71.25,0,0,0-65.53,5.28Zm52.39-89.49a51,51,0,0,0-47.12,70.42A85,85,0,0,1,124.86,124a122.52,122.52,0,0,1,25.82-41A50.68,50.68,0,0,0,107.23,58.72Z"/><rect class="cls-1" x="47.92" y="16.57" width="13.66" height="32.35" transform="translate(-8.5 41.07) rotate(-38.38)"/><rect class="cls-1" x="112.49" y="10.02" width="32.35" height="13.66" transform="translate(97.1 142.72) rotate(-83.38)"/><rect class="cls-1" x="10.02" y="79.1" width="13.66" height="32.35" transform="translate(-79.73 101.03) rotate(-83.38)"/></g></g></svg>