<svg xmlns="http://www.w3.org/2000/svg" viewBox="0 0 291.92 295.61"><defs><style>.cls-1{fill:#fff;}</style></defs><title>clear</title><g id="圖層_2" data-name="圖層 2"><g id="圖層_1-2" data-name="圖層 1"><path class="cls-1" d="M145.86,262.85a115.06,115.06,0,1,1,117-113.11A115.19,115.19,0,0,1,145.86,262.85Zm3.65-216.43a101.4,101.4,0,1,0,99.68,103.09A101.51,101.51,0,0,0,149.51,46.42Z"/><rect class="cls-1" x="139.99" y="3.41" width="20.27" height="13.66" transform="translate(137.35 160.18) rotate(-89.03)"/><rect class="cls-1" x="135.35" y="278.53" width="20.27" height="13.66" transform="translate(-142.29 426.01) rotate(-89.03)"/><rect class="cls-1" x="235.46" y="46.43" width="20.27" height="13.66" transform="translate(32.01 185.68) rotate(-44.03)"/><rect class="cls-1" x="39.88" y="235.52" width="20.27" height="13.66" transform="translate(-154.39 102.88) rotate(-44.03)"/><rect class="cls-1" x="274.84" y="139.92" width="13.66" height="20.28" transform="translate(126.88 429.16) rotate(-89.03)"/><rect class="cls-1" x="3.41" y="135.35" width="13.66" height="20.27" transform="translate(-135.39 153.28) rotate(-89.03)"/><rect class="cls-1" x="46.43" y="39.88" width="13.66" height="20.27" transform="translate(-19.8 51.08) rotate(-44.03)"/><rect class="cls-1" x="235.51" y="235.46" width="13.66" height="20.27" transform="translate(-102.59 237.47) rotate(-44.03)"/></g></g></svg>