<svg xmlns="http://www.w3.org/2000/svg" viewBox="0 0 428.52 298.51"><defs><style>.cls-1{fill:#fff;}</style></defs><title>mostly-cloudy-with-fog-and-thundershowers</title><g id="圖層_2" data-name="圖層 2"><g id="圖層_1-2" data-name="圖層 1"><path class="cls-1" d="M84.74,244.31A84.75,84.75,0,0,1,45,84.73l6.42,12.06A71.09,71.09,0,0,0,84.74,230.65Z"/><path class="cls-1" d="M119.39,97l-6.94-2.94a71.29,71.29,0,0,0-61.08,2.7L45,84.73A85,85,0,0,1,111,79a123.37,123.37,0,0,1,41.22-54.71,122.18,122.18,0,0,1,174.35,29.6L315.2,61.5A108.53,108.53,0,0,0,121.64,89.83Z"/><path class="cls-1" d="M316.23,244.31V230.65c11.53,0,22.21-6,29.31-16.41l11.29,7.69C347.16,236.15,332.36,244.31,316.23,244.31Z"/><path class="cls-1" d="M383,128h-.65l.24-13.66a21.34,21.34,0,0,0,14.5-5.16,16.26,16.26,0,0,0,.43-24.65,21.25,21.25,0,0,0-14.31-5.66h-.39a20.77,20.77,0,0,0-17.07,8.48l-11.24-7.77a34.18,34.18,0,0,1,28.94-14.37,34.88,34.88,0,0,1,23.47,9.4,29.93,29.93,0,0,1-.79,44.82A34.81,34.81,0,0,1,383,128Z"/><rect class="cls-1" x="307.68" y="52.01" width="13.66" height="135.99" transform="translate(189.01 432.36) rotate(-89)"/><rect class="cls-1" x="301.85" y="80.75" width="13.66" height="125.16" transform="translate(159.96 449.46) rotate(-89)"/><rect class="cls-1" x="320.33" y="83.8" width="13.66" height="162.88" transform="matrix(0.02, -1, 1, 0.02, 156.21, 489.46)"/><path class="cls-1" d="M408.42,197.81h-.37a20.72,20.72,0,0,1-13.93-5.59l9.39-9.93a7.07,7.07,0,0,0,4.78,1.86c3.56.07,6.51-2.28,6.56-5.21a4.87,4.87,0,0,0-1.61-3.58,7,7,0,0,0-4.77-1.86l.24-13.66a20.7,20.7,0,0,1,13.92,5.59,18.32,18.32,0,0,1,5.88,13.75C428.33,189.53,419.36,197.81,408.42,197.81Z"/><rect class="cls-1" x="262.98" y="230.65" width="53.26" height="13.66"/><path class="cls-1" d="M177.23,259.67a38.84,38.84,0,0,1-77.68,0c0-21.45,38.84-61.86,38.84-61.86S177.23,238.22,177.23,259.67Z"/><polygon class="cls-1" points="212.32 271.17 205.16 266.23 228.15 232.92 191.67 228.03 213.21 187.38 220.9 191.46 205.21 221.07 243.37 226.18 212.32 271.17"/></g></g></svg>