<svg xmlns="http://www.w3.org/2000/svg" viewBox="0 0 382.96 338.32"><defs><style>.cls-1{fill:#fff;}</style></defs><title>occasional-after-shower </title><g id="圖層_2" data-name="圖層 2"><g id="圖層_1-2" data-name="圖層 1"><rect class="cls-1" x="47.92" y="16.57" width="13.66" height="32.35" transform="translate(-8.5 41.07) rotate(-38.38)"/><rect class="cls-1" x="112.49" y="10.02" width="32.35" height="13.66" transform="translate(97.1 142.72) rotate(-83.38)"/><rect class="cls-1" x="10.02" y="79.1" width="13.66" height="32.35" transform="translate(-79.73 101.03) rotate(-83.38)"/><path class="cls-1" d="M363.26,192.74c-.53-.45-1.07-.89-1.61-1.32a124.11,124.11,0,0,0,1.74-20.67,122.17,122.17,0,0,0-195.22-97.9c-1.76,1.32-3.48,2.7-5.17,4.12a64.65,64.65,0,0,0-112.78,63.2,84.72,84.72,0,0,0,50.52,152.74V279.24a71.08,71.08,0,1,1,27.71-136.55l7,2.94,2.24-7.2a109.41,109.41,0,0,1,38.71-54.64,108.51,108.51,0,0,1,173.38,87,109.29,109.29,0,0,1-2.3,22.29l-1,4.6,3.95,2.54a37.88,37.88,0,0,1,4,3c9.47,8.07,14.9,20.41,14.9,33.85a45.74,45.74,0,0,1-7.75,25.85c-7.09,10.42-17.77,16.4-29.3,16.4v13.67c16.12,0,30.92-8.16,40.6-22.39A59.28,59.28,0,0,0,383,237C383,219.54,375.77,203.41,363.26,192.74Zm-256-134A50.68,50.68,0,0,1,150.68,83a122.52,122.52,0,0,0-25.82,41,85,85,0,0,0-64.75,5.13,51,51,0,0,1,47.12-70.42Z"/><path class="cls-1" d="M139.61,302.56a34.85,34.85,0,1,0,69.68,1.82c.5-19.24-33.39-56.39-33.39-56.39S140.11,283.32,139.61,302.56Z"/><rect class="cls-1" x="236.47" y="279.24" width="95.97" height="13.66"/></g></g></svg>