<svg xmlns="http://www.w3.org/2000/svg" viewBox="0 0 382.96 338.32"><defs><style>.cls-1{fill:#fff;}</style></defs><title>partly-cloudy-with-local-showers or thundershowers</title><g id="圖層_2" data-name="圖層 2"><g id="圖層_1-2" data-name="圖層 1"><path class="cls-1" d="M54.84,148.21l-3.56-6.13a64.66,64.66,0,1,1,114-60.92l2.2,4.48-3.59,3.46a108.51,108.51,0,0,0-28.31,45.79l-2.24,7.2-6.95-2.94a71.25,71.25,0,0,0-65.53,5.28Zm52.39-89.49a51,51,0,0,0-47.12,70.42A85,85,0,0,1,124.86,124a122.52,122.52,0,0,1,25.82-41A50.68,50.68,0,0,0,107.23,58.72Z"/><polygon class="cls-1" points="152.29 84.19 152.29 84.18 165.96 84.18 152.29 84.19"/><path class="cls-1" d="M57.19,145.48v0ZM64,138.66H57.19v-6.84Z"/><rect class="cls-1" x="47.92" y="16.57" width="13.66" height="32.35" transform="translate(-8.5 41.07) rotate(-38.38)"/><rect class="cls-1" x="112.49" y="10.02" width="32.35" height="13.66" transform="translate(97.1 142.72) rotate(-83.38)"/><rect class="cls-1" x="10.02" y="79.1" width="13.66" height="32.35" transform="translate(-79.73 101.03) rotate(-83.38)"/><path class="cls-1" d="M332.24,292.91V279.24c11.53,0,22.21-6,29.3-16.4A45.74,45.74,0,0,0,369.29,237c0-13.44-5.43-25.78-14.9-33.85a37.88,37.88,0,0,0-4-3l-3.95-2.54,1-4.6A108.55,108.55,0,0,0,241.23,62.26a107.63,107.63,0,0,0-64.88,21.53,109.41,109.41,0,0,0-38.71,54.64l-2.24,7.2-7-2.94a71.08,71.08,0,1,0-27.71,136.55v13.67A84.75,84.75,0,1,1,127,127.55a123.4,123.4,0,0,1,41.22-54.7,122.17,122.17,0,0,1,195.22,97.9,124.11,124.11,0,0,1-1.74,20.67c.54.43,1.08.87,1.61,1.32C375.77,203.41,383,219.54,383,237a59.28,59.28,0,0,1-10.12,33.53C363.16,284.75,348.36,292.91,332.24,292.91Z"/><path class="cls-1" d="M210.29,304.38a34.85,34.85,0,1,1-69.68-1.82c.5-19.24,36.29-54.57,36.29-54.57S210.79,285.14,210.29,304.38Z"/><polygon class="cls-1" points="240.66 280.15 234.54 275.93 254.17 247.49 223.01 243.32 241.41 208.6 247.98 212.08 234.58 237.37 267.17 241.74 240.66 280.15"/><path class="cls-1" d="M240.93,281.66,233,276.21l19.24-27.88-30.94-4.15,19.63-37,8.47,4.49-13.19,24.88,32.81,4.39Zm-4.89-6,4.34,3,24.9-36.08-32.38-4.34,13.62-25.7-4.66-2.47-17.17,32.39,31.37,4.2Z"/><polygon class="cls-1" points="278.89 328.66 272.77 324.44 292.4 296 261.25 291.82 279.65 257.11 286.21 260.59 272.81 285.88 305.4 290.24 278.89 328.66"/><path class="cls-1" d="M279.16,330.16l-7.89-5.44,19.25-27.89-30.95-4.14,19.63-37,8.47,4.49L274.49,285l32.8,4.4Zm-4.89-6,4.34,3,24.91-36.08-32.39-4.34L284.75,261l-4.66-2.47L262.92,291l31.37,4.2Z"/></g></g></svg>