<svg xmlns="http://www.w3.org/2000/svg" viewBox="0 0 366.13 330.32"><defs><style>.cls-1{fill:#fff;}</style></defs><title>rain</title><g id="圖層_2" data-name="圖層 2"><g id="圖層_1-2" data-name="圖層 1"><path class="cls-1" d="M315.19,246.66l-1.24,0-231.42-6A84.74,84.74,0,1,1,113,76a123.44,123.44,0,0,1,42.63-53.61,122.16,122.16,0,0,1,192.6,103A122.78,122.78,0,0,1,346,146c.54.44,1.06.89,1.58,1.36,12.23,11,19,27.31,18.54,44.75a59.23,59.23,0,0,1-11,33.25C345.33,238.93,330.83,246.66,315.19,246.66ZM84.69,84.82A71.08,71.08,0,0,0,82.89,227l231.41,6c11.49.29,22.36-5.4,29.72-15.64a45.67,45.67,0,0,0,8.43-25.63c.35-13.44-4.76-25.91-14-34.23h0a37.2,37.2,0,0,0-3.88-3.05l-3.88-2.65,1.08-4.56A108.89,108.89,0,0,0,334.61,125a108.49,108.49,0,0,0-171-91.44,109.43,109.43,0,0,0-40.13,53.6L121,94.28l-6.86-3.12a70.68,70.68,0,0,0-27.56-6.32C86,84.82,85.32,84.82,84.69,84.82Z"/><path class="cls-1" d="M157.46,302.11a25.39,25.39,0,0,1-50.77-1.32c.36-14,26.44-39.77,26.44-39.77S157.82,288.09,157.46,302.11Z"/><path class="cls-1" d="M225,303.45a25.39,25.39,0,1,1-50.78-.49c.13-14,25.78-40.19,25.78-40.19S225.13,289.43,225,303.45Z"/><path class="cls-1" d="M290.78,305.17a25.4,25.4,0,0,1-50.79-.49c.14-14,25.79-40.2,25.79-40.2S290.91,291.15,290.78,305.17Z"/></g></g></svg>