<svg xmlns="http://www.w3.org/2000/svg" viewBox="0 0 366.13 293.93"><defs><style>.cls-1{fill:#fff;}</style></defs><title>thundershowers</title><g id="圖層_2" data-name="圖層 2"><g id="圖層_1-2" data-name="圖層 1"><path class="cls-1" d="M315.47,243.81V230c11.48,0,22.11-5.95,29.17-16.33A45.42,45.42,0,0,0,352.37,188c0-13.38-5.41-25.67-14.85-33.72a36.78,36.78,0,0,0-3.95-2.94l-4-2.56,1-4.63A108.22,108.22,0,0,0,224.71,13.76,107.25,107.25,0,0,0,160,35.23a109,109,0,0,0-38.59,54.46l-2.26,7.25-7-3A70.83,70.83,0,1,0,84.58,230v13.77a84.59,84.59,0,1,1,26.1-165.08A123.17,123.17,0,0,1,151.8,24.2a121.91,121.91,0,0,1,194.81,97.7,123.15,123.15,0,0,1-1.73,20.59c.54.42,1.06.86,1.58,1.3,12.5,10.65,19.67,26.76,19.67,44.18A59.11,59.11,0,0,1,356,221.45C346.36,235.66,331.58,243.81,315.47,243.81Z"/><rect class="cls-1" x="118.58" y="189.69" width="13.76" height="60.3" transform="translate(-103.07 111.02) rotate(-34.82)"/><rect class="cls-1" x="176.9" y="235.1" width="13.76" height="60.3" transform="translate(-118.56 152.46) rotate(-34.82)"/><rect class="cls-1" x="190.07" y="189.69" width="13.76" height="60.3" transform="translate(-90.27 151.84) rotate(-34.82)"/><polygon class="cls-1" points="266.36 263.42 255.03 255.6 275.69 225.66 239.67 220.83 262.93 176.95 275.09 183.39 261.09 209.82 299.77 215 266.36 263.42"/></g></g></svg>