<svg xmlns="http://www.w3.org/2000/svg" viewBox="0 0 381.4 334.36"><defs><style>.cls-1{fill:#fff;}</style></defs><title>clear-fog</title><g id="圖層_2" data-name="圖層 2"><g id="圖層_1-2" data-name="圖層 1"><path class="cls-1" d="M330.68,289.27V275.61c11.53,0,22.21-6,29.3-16.41a45.61,45.61,0,0,0,7.76-25.84c0-13.44-5.43-25.78-14.91-33.86a36.65,36.65,0,0,0-4-2.95L344.92,194l1-4.59A108.6,108.6,0,0,0,239.68,58.62,107.56,107.56,0,0,0,174.8,80.16a109.41,109.41,0,0,0-38.71,54.64l-2.25,7.2-6.94-2.95A71.09,71.09,0,1,0,99.19,275.61v13.66a84.74,84.74,0,1,1,26.2-165.35,123.52,123.52,0,0,1,41.23-54.71,122.17,122.17,0,0,1,195.22,97.91,123.24,123.24,0,0,1-1.75,20.67c.55.43,1.08.87,1.61,1.32,12.52,10.67,19.7,26.8,19.7,44.25a59.3,59.3,0,0,1-10.12,33.53C361.6,281.11,346.81,289.27,330.68,289.27Z"/><path class="cls-1" d="M272.9,252.23V238.56c11.06,0,20.06-10,20.06-22.27S284,194,272.9,194c-7,0-13.34,3.93-17,10.52L244,197.86c6.06-10.8,17.15-17.51,28.95-17.51,18.6,0,33.73,16.12,33.73,35.94S291.5,252.23,272.9,252.23Z"/><rect class="cls-1" x="136.91" y="238.56" width="135.99" height="13.66"/><rect class="cls-1" x="136.91" y="266.32" width="125.16" height="13.66"/><rect class="cls-1" x="136.91" y="291.89" width="162.88" height="13.66"/><path class="cls-1" d="M299.8,334.36A19.5,19.5,0,0,1,285.37,328l10-9.27a6,6,0,0,0,4.4,2c3.57,0,6.47-3.4,6.47-7.57s-2.9-7.57-6.47-7.57V291.89c11.1,0,20.13,9.53,20.13,21.24S310.9,334.36,299.8,334.36Z"/><path class="cls-1" d="M54.84,148.21l-3.56-6.13a64.66,64.66,0,1,1,114-60.92l2.2,4.48-3.59,3.46a108.51,108.51,0,0,0-28.31,45.79l-2.24,7.2-6.95-2.94a71.25,71.25,0,0,0-65.53,5.28Zm52.39-89.49a51,51,0,0,0-47.12,70.42A85,85,0,0,1,124.86,124a122.52,122.52,0,0,1,25.82-41A50.68,50.68,0,0,0,107.23,58.72Z"/><rect class="cls-1" x="47.92" y="16.57" width="13.66" height="32.35" transform="translate(-8.5 41.07) rotate(-38.38)"/><rect class="cls-1" x="112.49" y="10.02" width="32.35" height="13.66" transform="translate(97.1 142.72) rotate(-83.38)"/><rect class="cls-1" x="10.02" y="79.1" width="13.66" height="32.35" transform="translate(-79.73 101.03) rotate(-83.38)"/></g></g></svg>