<svg xmlns="http://www.w3.org/2000/svg" viewBox="0 0 366.96 289.4"><defs><style>.cls-1{fill:#fff;}</style></defs><title>fog</title><g id="圖層_2" data-name="圖層 2"><g id="圖層_1-2" data-name="圖層 1"><path class="cls-1" d="M316.23,244.31V230.65c11.53,0,22.21-6,29.31-16.41a45.68,45.68,0,0,0,7.75-25.84c0-13.44-5.43-25.79-14.91-33.86a36.65,36.65,0,0,0-4-2.95L330.47,149l1-4.59A108.6,108.6,0,0,0,225.23,13.66,107.56,107.56,0,0,0,160.35,35.2a109.37,109.37,0,0,0-38.71,54.64L119.39,97l-6.94-3A71.09,71.09,0,1,0,84.74,230.65v13.66A84.74,84.74,0,1,1,111,79a123.43,123.43,0,0,1,41.22-54.71,122.17,122.17,0,0,1,195.22,97.91,123.24,123.24,0,0,1-1.75,20.67c.55.43,1.09.87,1.61,1.32C359.77,154.82,367,171,367,188.4a59.24,59.24,0,0,1-10.13,33.53C347.16,236.15,332.36,244.31,316.23,244.31Z"/><path class="cls-1" d="M258.46,207.27V193.6c11.06,0,20.06-10,20.06-22.27s-9-22.27-20.06-22.27c-7,0-13.34,3.93-17,10.52L229.5,152.9c6.06-10.8,17.16-17.51,29-17.51,18.59,0,33.72,16.12,33.72,35.94S277.05,207.27,258.46,207.27Z"/><rect class="cls-1" x="122.47" y="193.6" width="135.99" height="13.66"/><rect class="cls-1" x="122.47" y="221.36" width="125.16" height="13.66"/><rect class="cls-1" x="122.47" y="246.93" width="162.88" height="13.66"/><path class="cls-1" d="M285.35,289.4A19.52,19.52,0,0,1,270.92,283l10-9.28a6,6,0,0,0,4.39,2c3.57,0,6.47-3.4,6.47-7.57s-2.9-7.57-6.47-7.57V246.93c11.1,0,20.14,9.53,20.14,21.24S296.45,289.4,285.35,289.4Z"/></g></g></svg>