<svg xmlns="http://www.w3.org/2000/svg" viewBox="0 0 366.96 300.93"><defs><style>.cls-1{fill:#fff;}</style></defs><title>local-showers</title><g id="圖層_2" data-name="圖層 2"><g id="圖層_1-2" data-name="圖層 1"><path class="cls-1" d="M316.23,244.31V230.65c11.53,0,22.21-6,29.31-16.41a45.68,45.68,0,0,0,7.75-25.84c0-13.44-5.43-25.79-14.91-33.86a36.65,36.65,0,0,0-4-2.95L330.47,149l1-4.59A108.6,108.6,0,0,0,225.23,13.66,107.56,107.56,0,0,0,160.35,35.2a109.38,109.38,0,0,0-38.71,54.63L119.39,97l-6.94-2.94A71.09,71.09,0,1,0,84.74,230.65v13.66A84.74,84.74,0,1,1,111,79a123.37,123.37,0,0,1,41.22-54.71,122.17,122.17,0,0,1,195.22,97.91,123.24,123.24,0,0,1-1.75,20.67c.55.43,1.09.87,1.61,1.32C359.77,154.82,367,171,367,188.4a59.24,59.24,0,0,1-10.13,33.53C347.16,236.15,332.36,244.31,316.23,244.31Z"/><path class="cls-1" d="M292.71,262.1a38.84,38.84,0,0,1-77.67,0c0-21.45,38.84-61.86,38.84-61.86S292.71,240.65,292.71,262.1Z"/><rect class="cls-1" x="84.74" y="230.65" width="98.74" height="13.66"/></g></g></svg>