<svg xmlns="http://www.w3.org/2000/svg" viewBox="0 0 366.96 244.31"><defs><style>.cls-1{fill:#fff;}</style></defs><title>partly-cloudy</title><g id="圖層_2" data-name="圖層 2"><g id="圖層_1-2" data-name="圖層 1"><path class="cls-1" d="M316.23,244.31H84.74A84.74,84.74,0,1,1,110.94,79a122.18,122.18,0,0,1,234.7,63.88c.55.43,1.09.87,1.61,1.32C359.77,154.82,367,171,367,188.4a59.24,59.24,0,0,1-10.13,33.53C347.16,236.15,332.36,244.31,316.23,244.31ZM84.74,88.49a71.08,71.08,0,0,0,0,142.16H316.23c11.53,0,22.21-6,29.31-16.41a45.68,45.68,0,0,0,7.75-25.84c0-13.44-5.43-25.78-14.91-33.86a36.65,36.65,0,0,0-4-2.95L330.47,149l1-4.59A108.6,108.6,0,0,0,225.23,13.66,108.64,108.64,0,0,0,121.64,89.83L119.39,97l-6.94-3A70.73,70.73,0,0,0,84.74,88.49Z"/><path class="cls-1" d="M40.93,103.16,37.37,97a64.65,64.65,0,1,1,114-60.91l2.21,4.48-3.6,3.46a108.64,108.64,0,0,0-28.3,45.77L119.39,97l-6.94-3a71.18,71.18,0,0,0-65.53,5.3Zm52.38-89.5A51,51,0,0,0,46.19,84.09,85.07,85.07,0,0,1,110.94,79a122.48,122.48,0,0,1,25.82-41A50.65,50.65,0,0,0,93.31,13.66Z"/></g></g></svg>