<svg xmlns="http://www.w3.org/2000/svg" viewBox="0 0 380.88 289.36"><defs><style>.cls-1{fill:#fff;}</style></defs><title>partly-clear</title><g id="圖層_2" data-name="圖層 2"><g id="圖層_1-2" data-name="圖層 1"><path class="cls-1" d="M54.84,148.21l-3.56-6.13a64.66,64.66,0,1,1,114-60.92l2.2,4.48-3.59,3.46a108.51,108.51,0,0,0-28.31,45.79l-2.24,7.2-6.95-2.94a71.25,71.25,0,0,0-65.53,5.28Zm52.39-89.49a51,51,0,0,0-47.12,70.42A85,85,0,0,1,124.86,124a122.52,122.52,0,0,1,25.82-41A50.68,50.68,0,0,0,107.23,58.72Z"/><polygon class="cls-1" points="152.29 84.19 152.29 84.18 165.96 84.18 152.29 84.19"/><path class="cls-1" d="M57.19,145.48v0ZM64,138.66H57.19v-6.84Z"/><rect class="cls-1" x="47.92" y="16.57" width="13.66" height="32.35" transform="translate(-8.5 41.07) rotate(-38.38)"/><rect class="cls-1" x="112.49" y="10.02" width="32.35" height="13.66" transform="translate(97.1 142.72) rotate(-83.38)"/><rect class="cls-1" x="10.02" y="79.1" width="13.66" height="32.35" transform="translate(-79.73 101.03) rotate(-83.38)"/><path class="cls-1" d="M330.16,289.36H98.66A84.74,84.74,0,1,1,124.86,124a122.17,122.17,0,0,1,236.45,43.2,124.2,124.2,0,0,1-1.74,20.67c.54.43,1.08.87,1.61,1.32,12.51,10.67,19.7,26.8,19.7,44.25A59.28,59.28,0,0,1,370.76,267C361.08,281.21,346.28,289.36,330.16,289.36ZM98.66,133.55a71.08,71.08,0,0,0,0,142.15h231.5c11.53,0,22.21-6,29.3-16.41a45.68,45.68,0,0,0,7.75-25.84c0-13.44-5.43-25.78-14.9-33.86a37.78,37.78,0,0,0-4-3l-3.95-2.54,1-4.6A108.55,108.55,0,0,0,239.16,58.72a108.61,108.61,0,0,0-103.6,76.17l-2.24,7.2-6.95-2.94A70.55,70.55,0,0,0,98.66,133.55Z"/></g></g></svg>