<svg xmlns="http://www.w3.org/2000/svg" viewBox="0 0 366.96 294.59"><defs><style>.cls-1{fill:#fff;}</style></defs><title>rainy</title><g id="圖層_2" data-name="圖層 2"><g id="圖層_1-2" data-name="圖層 1"><path class="cls-1" d="M316.23,244.31V230.65c11.53,0,22.21-6,29.31-16.41a45.68,45.68,0,0,0,7.75-25.84c0-13.44-5.43-25.79-14.91-33.86a35.81,35.81,0,0,0-4-2.95L330.47,149l1-4.59A108.6,108.6,0,0,0,225.23,13.66,107.56,107.56,0,0,0,160.35,35.2a109.38,109.38,0,0,0-38.71,54.63L119.39,97l-6.94-2.94A71.09,71.09,0,1,0,84.74,230.65v13.66A84.74,84.74,0,1,1,111,79a123.37,123.37,0,0,1,41.22-54.71,122.17,122.17,0,0,1,195.22,97.91,123.24,123.24,0,0,1-1.75,20.67c.55.43,1.09.87,1.61,1.32C359.77,154.82,367,171,367,188.4a59.24,59.24,0,0,1-10.13,33.53C347.16,236.15,332.36,244.31,316.23,244.31Z"/><rect class="cls-1" x="118.89" y="190.12" width="13.66" height="60.45" transform="translate(-103.32 111.26) rotate(-34.82)"/><rect class="cls-1" x="177.37" y="235.65" width="13.66" height="60.45" transform="translate(-118.85 152.81) rotate(-34.82)"/><rect class="cls-1" x="246.66" y="235.65" width="13.66" height="60.45" transform="translate(-106.44 192.38) rotate(-34.82)"/><rect class="cls-1" x="190.56" y="190.12" width="13.66" height="60.45" transform="translate(-90.48 152.19) rotate(-34.82)"/><rect class="cls-1" x="268" y="190.12" width="13.66" height="60.45" transform="translate(-76.61 196.41) rotate(-34.82)"/></g></g></svg>