<svg xmlns="http://www.w3.org/2000/svg" viewBox="0 0 366.13 328.36"><defs><style>.cls-1{fill:#fff;}</style></defs><title>snow</title><g id="圖層_2" data-name="圖層 2"><g id="圖層_1-2" data-name="圖層 1"><path class="cls-1" d="M315.19,246.66l-1.24,0-231.42-6A84.74,84.74,0,1,1,113,76a123.44,123.44,0,0,1,42.63-53.61,122.16,122.16,0,0,1,192.6,103A122.78,122.78,0,0,1,346,146c.54.44,1.06.89,1.58,1.36,12.23,11,19,27.31,18.54,44.75a59.23,59.23,0,0,1-11,33.25C345.33,238.93,330.83,246.66,315.19,246.66ZM84.69,84.82A71.08,71.08,0,0,0,82.89,227l231.41,6c11.49.29,22.36-5.4,29.72-15.64a45.67,45.67,0,0,0,8.43-25.63c.35-13.44-4.76-25.91-14-34.23h0a37.2,37.2,0,0,0-3.88-3.05l-3.88-2.65,1.08-4.56A108.89,108.89,0,0,0,334.61,125a108.49,108.49,0,0,0-171-91.44,109.43,109.43,0,0,0-40.13,53.6L121,94.28l-6.86-3.12a70.68,70.68,0,0,0-27.56-6.32C86,84.82,85.32,84.82,84.69,84.82Z"/><polygon class="cls-1" points="133.98 276.31 128.63 266.48 106.05 278.78 106.7 253.07 95.52 252.79 94.87 278.49 72.93 265.08 67.09 274.62 89.03 288.03 66.45 300.33 71.79 310.15 94.38 297.86 93.73 323.56 104.91 323.85 105.56 298.14 127.5 311.55 133.33 302.01 111.39 288.6 133.98 276.31"/><polygon class="cls-1" points="223.54 278.56 218.19 268.74 195.6 281.03 196.25 255.33 185.07 255.04 184.42 280.75 162.48 267.34 156.65 276.88 178.59 290.29 156 302.58 161.35 312.41 183.94 300.12 183.29 325.82 194.47 326.11 195.12 300.4 217.05 313.81 222.89 304.27 200.95 290.86 223.54 278.56"/><polygon class="cls-1" points="313.09 280.82 307.75 271 285.16 283.29 285.81 257.58 274.63 257.3 273.98 283.01 252.04 269.6 246.21 279.14 268.15 292.55 245.56 304.84 250.9 314.67 273.49 302.37 272.84 328.08 284.02 328.36 284.67 302.66 306.61 316.07 312.44 306.53 290.5 293.12 313.09 280.82"/></g></g></svg>